<svg width="12" height="12" viewBox="0 0 12 12" xmlns="http://www.w3.org/2000/svg">
<path d="M11.9811 9.07093L11.4363 11.4325C11.3598 11.7664 11.066 12 10.7218 12C4.81006 12 0 7.19163 0 1.27725C0 0.933817 0.233659 0.640347 0.567738 0.563957L2.92964 0.0189154C3.27394 -0.060896 3.62724 0.117754 3.77023 0.443607L4.86117 2.98745C4.98864 3.28697 4.90255 3.6356 4.65057 3.84133L3.38767 4.87649C4.18419 6.4985 5.50391 7.81728 7.12743 8.61399L8.15976 7.35285C8.36342 7.1002 8.71531 7.01307 9.01488 7.1427L11.5577 8.23232C11.8826 8.37263 12.0608 8.72881 11.9811 9.07093Z"/>
</svg>
