<svg width="31" height="46" viewBox="0 0 31 46" fill="none" xmlns="http://www.w3.org/2000/svg">
<path d="M29.5379 38.3567C29.5379 26.0585 29.5379 13.7788 29.5379 1.47134C20.1824 1.47134 10.8546 1.47134 1.4806 1.47134C1.4806 13.7603 1.4806 26.0493 1.4806 38.4215C1.63791 38.4215 1.81373 38.4215 1.98955 38.4215C6.09821 38.4215 10.2069 38.4215 14.3155 38.4215C14.4266 38.4215 14.5284 38.4215 14.6394 38.4215C15.1484 38.44 15.4815 38.7269 15.4722 39.1525C15.463 39.569 15.1299 39.8651 14.6209 39.8651C10.031 39.8651 5.45045 39.8651 0.860597 39.8651C0.240597 39.8651 0 39.5782 0 38.8749C0 32.7952 0 26.7155 0 20.6358C0 14.1119 0 7.58806 0 1.05493C0 0.212836 0.212836 0 1.06418 0C10.6881 0 20.3027 0 29.9266 0C30.7779 0 31 0.212836 31 1.05493C31 13.6122 31 26.1696 31 38.7361C31 39.68 30.8149 39.8651 29.871 39.8651C29.3158 39.8651 28.7606 39.8743 28.2054 39.8651C27.6872 39.8558 27.354 39.5782 27.3448 39.1618C27.3355 38.7269 27.6779 38.44 28.2239 38.4308C28.6218 38.4215 29.0197 38.4215 29.4269 38.4215C29.4454 38.4123 29.4731 38.3845 29.5379 38.3567Z" fill="#CBD5EE"/>
<path d="M2.95197 19.9325C2.95197 15.3797 2.95197 10.8176 2.95197 6.26477C2.95197 5.42268 3.07226 5.28387 3.89585 5.16358C4.56211 5.06179 5.08958 4.51582 5.16361 3.83104C5.24689 3.14626 5.45973 2.96119 6.15376 2.95193C12.3908 2.95193 18.6185 2.95193 24.8555 2.95193C25.5403 2.95193 25.7624 3.14626 25.8364 3.82179C25.9197 4.55283 26.4657 5.08029 27.1967 5.16358C27.826 5.22835 28.0388 5.4597 28.0481 6.07044C28.0481 13.0848 28.0481 20.1084 28.0481 27.1227C28.0481 27.6779 27.7705 28.0203 27.3355 28.0295C26.8914 28.0388 26.6045 27.6872 26.6045 27.1042C26.6045 20.423 26.5952 13.7418 26.6138 7.06059C26.6138 6.66268 26.512 6.47761 26.1326 6.32029C25.383 6.02417 24.8648 5.45044 24.5964 4.69164C24.5039 4.44179 24.3743 4.37701 24.1245 4.37701C18.3872 4.38626 12.6406 4.38626 6.90331 4.37701C6.6257 4.37701 6.5054 4.46029 6.41286 4.72865C6.10749 5.52447 5.55226 6.10746 4.75644 6.38507C4.39555 6.51462 4.39555 6.7182 4.39555 7.00507C4.39555 14.297 4.39555 21.5982 4.39555 28.8901C4.39555 30.2412 4.4048 31.6015 4.38629 32.9525C4.38629 33.2209 4.45107 33.3504 4.72868 33.4522C5.53376 33.7484 6.10749 34.3221 6.40361 35.1272C6.5054 35.4048 6.6442 35.4603 6.91256 35.4603C8.95763 35.451 11.0027 35.451 13.057 35.4603C13.2791 35.4603 13.566 35.4881 13.6955 35.6269C13.8621 35.8027 13.9917 36.1081 13.9639 36.3394C13.9176 36.7095 13.603 36.8854 13.2236 36.8946C12.4833 36.8946 11.743 36.8946 11.0027 36.8946C9.38331 36.8946 7.77316 36.8946 6.15376 36.8946C5.46898 36.8946 5.25614 36.7003 5.17286 36.0248C5.08958 35.2937 4.54361 34.757 3.81256 34.683C3.17405 34.6182 2.96122 34.3869 2.96122 33.7298C2.95197 29.1307 2.95197 24.5316 2.95197 19.9325Z" fill="#CBD5EE"/>
<path d="M14.1397 12.3537C14.2508 12.1686 14.3155 11.9836 14.4451 11.854C16.0367 10.2531 17.6376 8.65223 19.2385 7.05133C19.7845 6.50536 20.0806 6.51462 20.6358 7.06059C21.2651 7.68984 21.9036 8.31909 22.5236 8.94835C22.9863 9.41103 22.9863 9.75342 22.5328 10.2161C19.9048 12.8534 17.2767 15.4815 14.6394 18.1095C14.1952 18.5537 13.8528 18.5537 13.4087 18.1095C11.7522 16.4624 10.0958 14.806 8.44866 13.1495C8.00448 12.7054 8.01374 12.3722 8.45791 11.9188C9.10568 11.2618 9.76269 10.614 10.4105 9.957C10.9009 9.47581 11.2248 9.47581 11.706 9.94775C12.3537 10.5863 12.9922 11.234 13.6308 11.8725C13.751 12.0021 13.8806 12.1039 14.1397 12.3537ZM11.1693 11.4283C10.7343 11.8448 10.3457 12.2242 10.0125 12.548C11.3451 13.8898 12.6961 15.2409 13.9916 16.5364C16.3143 14.2137 18.6648 11.8633 20.969 9.55909C20.6543 9.21671 20.2934 8.82805 19.8493 8.34686C19.7382 8.49492 19.6549 8.65223 19.5346 8.77253C17.9707 10.3457 16.4069 11.9095 14.843 13.4734C14.1397 14.1767 13.9176 14.1767 13.2236 13.4827C12.511 12.7794 11.817 12.0761 11.1693 11.4283Z" fill="#CBD5EE"/>
<path d="M21.3669 27.3355C22.1812 27.3633 22.8752 27.6409 23.4675 28.1869C23.6155 28.3257 23.8561 28.4275 24.0597 28.4275C25.6699 28.483 26.8914 29.7045 26.9469 31.3239C26.9561 31.5274 27.0579 31.768 27.1967 31.9161C28.3072 33.1098 28.3164 34.8125 27.2152 36.0063C27.0672 36.1636 26.9561 36.4227 26.9469 36.6355C26.8914 38.2271 25.6606 39.4579 24.0875 39.5134C23.8746 39.5227 23.6155 39.6245 23.4582 39.7725C22.2645 40.8737 20.5526 40.8737 19.3681 39.7725C19.2108 39.6245 18.9517 39.5227 18.7388 39.5134C17.1657 39.4671 15.9349 38.2271 15.8794 36.6448C15.8702 36.4319 15.7591 36.1728 15.6203 36.0155C14.5191 34.8125 14.5284 33.1191 15.6388 31.9254C15.7776 31.7773 15.8794 31.5367 15.8887 31.3331C15.9349 29.723 17.1657 28.4922 18.7758 28.4367C18.9887 28.4274 19.2385 28.3164 19.4051 28.1683C19.9603 27.6409 20.6173 27.3725 21.3669 27.3355ZM23.9302 38.0698C24.9758 38.0976 25.6606 37.2833 25.4663 36.2283C25.3923 35.7842 25.494 35.5066 25.8642 35.2474C26.8543 34.5627 26.8543 33.3689 25.8642 32.6842C25.5218 32.4436 25.383 32.1845 25.457 31.7495C25.6791 30.5188 24.8555 29.686 23.634 29.908C23.1806 29.9913 22.9123 29.8433 22.6624 29.4824C21.9961 28.5107 20.7931 28.5107 20.1269 29.4824C19.877 29.8433 19.6087 29.9821 19.1552 29.8988C17.9615 29.6767 17.1194 30.5095 17.3323 31.7033C17.4063 32.1474 17.2952 32.4343 16.9343 32.6842C15.9349 33.3689 15.9442 34.5442 16.9343 35.2382C17.2767 35.4788 17.4155 35.7471 17.3323 36.1728C17.1102 37.4036 17.9337 38.2364 19.1552 38.0143C19.5809 37.9403 19.8585 38.0513 20.0991 38.3937C20.8024 39.4116 21.9776 39.4116 22.6809 38.3937C22.9215 38.0513 23.2084 37.894 23.6248 38.0143C23.7451 38.0606 23.8561 38.0606 23.9302 38.0698Z" fill="#CBD5EE"/>
<path d="M18.4334 43.7886C19.1737 43.3445 19.8678 43.0021 20.4785 42.5486C21.1448 42.0582 21.7 42.086 22.3478 42.5579C22.9585 42.9928 23.6248 43.3445 24.3281 43.7609C24.3466 43.5943 24.3743 43.4833 24.3743 43.3815C24.3743 42.5394 24.3743 41.6881 24.3743 40.846C24.3743 40.263 24.6612 39.9113 25.1054 39.9206C25.5403 39.9298 25.8179 40.2722 25.8179 40.8275C25.8179 42.1785 25.8272 43.5388 25.8179 44.8898C25.8179 45.7134 25.272 46.0095 24.5502 45.5839C23.634 45.0379 22.7272 44.5012 21.8296 43.9367C21.5334 43.7516 21.3114 43.7331 20.9967 43.9275C20.0899 44.5012 19.1552 45.0472 18.2299 45.5931C17.5173 46.0188 16.9899 45.7042 16.9806 44.8713C16.9714 43.5203 16.9806 42.16 16.9806 40.8089C16.9806 40.263 17.2767 39.9206 17.7117 39.9298C18.1466 39.9391 18.4242 40.2815 18.4242 40.8275C18.4427 41.7528 18.4334 42.706 18.4334 43.7886Z" fill="#CBD5EE"/>
<path d="M15.4722 22.1349C13.3809 22.1349 11.2895 22.1349 9.18893 22.1349C9.06863 22.1349 8.93908 22.1442 8.81878 22.1257C8.41162 22.0794 8.09699 21.7648 8.12475 21.3946C8.15251 20.9875 8.39311 20.7561 8.79102 20.6913C8.91132 20.6728 9.04087 20.6821 9.16117 20.6821C13.3901 20.6821 17.6283 20.6821 21.8573 20.6821C21.9961 20.6821 22.1442 20.6728 22.2737 20.7006C22.6254 20.7931 22.8474 21.0245 22.8474 21.3854C22.8474 21.774 22.6161 22.0146 22.2459 22.0979C22.1164 22.1257 21.9683 22.1164 21.8295 22.1164C19.7197 22.1349 17.6006 22.1349 15.4722 22.1349Z" fill="#CBD5EE"/>
<path d="M15.5185 24.3836C16.4439 24.3836 17.3693 24.3836 18.2854 24.3836C18.8314 24.3836 19.1738 24.6797 19.1738 25.1054C19.1738 25.5403 18.8314 25.8179 18.2761 25.8179C16.4254 25.8179 14.5839 25.8179 12.7332 25.8179C12.1779 25.8179 11.8355 25.5496 11.8263 25.1146C11.817 24.6704 12.1687 24.3743 12.7424 24.3743C13.6678 24.3836 14.5932 24.3836 15.5185 24.3836Z" fill="#CBD5EE"/>
<path d="M21.4131 37.6442C19.4051 37.6442 17.7302 35.9785 17.7302 33.9705C17.7302 31.9531 19.3866 30.2967 21.4039 30.2967C23.412 30.2875 25.0776 31.9531 25.0869 33.9705C25.0961 35.9693 23.412 37.6442 21.4131 37.6442ZM21.4131 31.7403C20.1824 31.7403 19.183 32.7305 19.1737 33.952C19.1645 35.192 20.1454 36.1914 21.3761 36.2006C22.6346 36.2099 23.6433 35.2197 23.634 33.9612C23.6433 32.7305 22.6531 31.7403 21.4131 31.7403Z" fill="#CBD5EE"/>
</svg>
