<svg width="48" height="49" viewBox="0 0 48 49" fill="none" xmlns="http://www.w3.org/2000/svg">
<g clip-path="url(#clip0_33_1711)">
<path d="M47.2252 27.0799C47.0412 27.0605 46.8475 27.0702 46.6634 27.0702C46.5956 27.0702 46.5182 27.0702 46.4504 27.0702C45.6852 27.0702 44.9104 27.0702 44.1259 27.0702H43.2736L41.8983 14.0048C41.937 14.0048 41.9855 13.9952 42.0242 13.9952C42.1211 13.9855 42.2082 13.9758 42.2857 13.9758C42.8668 13.9758 43.4383 13.9758 44.0194 13.9758C45.0169 13.9758 46.0533 13.9758 47.0799 13.9758C47.3705 13.9758 47.6223 13.8789 47.7966 13.7046C47.9419 13.5593 48.0097 13.3753 48.0097 13.1622C48.0097 12.6877 47.632 12.368 47.0702 12.368C44.9298 12.3584 43.0024 12.3584 41.1719 12.368C40.8329 12.368 40.5908 12.4649 40.4262 12.6392C40.2615 12.8232 40.2034 13.0944 40.2421 13.4431C40.2712 13.724 40.3002 14.0048 40.3293 14.3051C40.339 14.431 40.3584 14.5569 40.368 14.6828C40.1646 14.6828 39.9709 14.6828 39.7772 14.6925C39.3027 14.7022 38.8571 14.7022 38.4116 14.6828C38.2663 14.6731 38.1114 14.6731 37.9661 14.6634C37.385 14.6441 36.7845 14.615 36.2421 14.4407C34.8862 14.0048 33.54 13.4625 32.2324 12.9492L31.6416 12.7167C28.7361 11.5642 26.431 11.3317 24.1646 11.9613C24.0484 11.9903 23.9128 11.9613 23.7772 11.9419L23.6804 11.9225C22.2857 11.661 20.8426 11.3995 19.4383 11.816C17.8015 12.3002 15.9419 12.8523 14.1889 13.5981C11.9806 14.5375 10.0726 14.8862 8.17433 14.7119C8.04843 14.7022 7.92252 14.7022 7.79661 14.7022C7.74818 14.7022 7.69976 14.7022 7.65133 14.7022C7.66102 14.5666 7.68039 14.4407 7.69007 14.3148C7.71913 14.0242 7.74818 13.7724 7.77724 13.5109C7.82567 13.1332 7.76755 12.8426 7.60291 12.6586C7.43826 12.4746 7.17676 12.3777 6.80872 12.3777C4.98789 12.3777 3.08959 12.3777 1.00726 12.3777C0.397094 12.3777 0.00968523 12.6877 0 13.1719C0 13.385 0.0677966 13.569 0.20339 13.7046C0.377724 13.8789 0.639225 13.9758 0.968523 13.9758C2.00484 13.9758 3.05085 13.9758 4.08717 13.9758H6.09201L4.71671 27.0702H4.20339C3.88378 27.0702 3.56416 27.0702 3.24455 27.0702C2.47942 27.0702 1.69492 27.0702 0.910412 27.0702C0.619855 27.0702 0.368039 27.1671 0.193705 27.3414C0.0677966 27.4964 0 27.6804 0 27.8935C0.00968523 28.3584 0.377724 28.678 0.900726 28.678C2.46973 28.6877 3.92252 28.6877 5.34625 28.678C5.88862 28.678 6.18886 28.3971 6.24697 27.845C6.25666 27.7191 6.26634 27.6029 6.28571 27.477C6.30509 27.2349 6.32446 26.9831 6.37288 26.7409C6.39225 26.6247 6.52785 26.46 6.56659 26.46C7.1477 26.5085 7.71913 26.5763 8.37772 26.6441C8.53269 26.6634 8.69734 26.6828 8.86199 26.7022C7.8063 27.7191 7.51574 28.7458 7.95157 29.8983C8.37772 31.0024 9.25908 31.6126 10.5763 31.6998C10.6053 32.6102 11.0121 33.3656 11.7676 33.9661C12.4552 34.5085 13.2688 34.6731 14.247 34.4794C14.8862 36.2906 15.9031 36.9298 17.9855 36.8232L17.9952 36.8329C18.0048 36.8426 18.0242 36.8523 18.0242 36.8717C18.4504 37.8111 19.0896 38.431 19.8741 38.6441C20.0775 38.7022 20.2906 38.7312 20.5133 38.7312C21.1138 38.7312 21.7433 38.5182 22.3632 38.092C22.5182 37.9855 22.6731 37.8789 22.8281 37.7821C23.138 37.5787 23.4576 37.3559 23.7579 37.1332C23.9516 36.9879 24.0872 36.9976 24.3002 37.1429C24.7361 37.4625 25.2203 37.8015 25.8499 38.2179C26.5278 38.6634 27.1961 38.8184 27.9031 38.6731C28.9492 38.4697 29.6562 37.8499 30.0048 36.8329C32.184 36.9007 32.9298 36.4358 33.7724 34.5085C33.7821 34.5085 33.8015 34.5085 33.8111 34.5085C36.184 34.5085 36.7845 34.0436 37.4818 31.7094C38.7893 31.6223 39.661 30.9927 40.0775 29.8596C40.4939 28.7264 40.2034 27.7191 39.1768 26.6925C39.3511 26.6731 39.5157 26.6538 39.6804 26.6344C40.2809 26.5666 40.8426 26.4988 41.4044 26.46C41.4625 26.4504 41.6174 26.6247 41.6465 26.7409C41.6949 26.9927 41.7143 27.2446 41.7337 27.4964C41.7433 27.632 41.753 27.7579 41.7724 27.8935C41.8208 28.368 42.1017 28.6586 42.5182 28.6683C44.0775 28.6973 45.6755 28.6973 47.2542 28.6683C47.6804 28.6586 47.9709 28.368 48 27.8935C48.0291 27.4867 47.6804 27.1186 47.2252 27.0799ZM31.1768 26.7022C31.0024 27.0702 31.0799 27.4286 31.3898 27.6707C31.6513 27.8838 31.9128 28.0872 32.1743 28.2809C32.3196 28.3971 32.4649 28.5036 32.6102 28.6199C32.8426 28.8039 33.0847 28.9879 33.3172 29.1719C33.9855 29.6949 34.6731 30.2276 35.3414 30.77C35.9128 31.2252 36 31.8547 35.5738 32.3971C35.3123 32.7264 35.0024 32.9201 34.6731 32.9588C34.3729 32.9976 34.063 32.9007 33.7821 32.678C32.9104 31.9806 32.0194 31.2736 31.1671 30.5763C30.799 30.276 30.4213 29.9758 30.0533 29.6755L29.9758 29.6077C29.8789 29.5303 29.7821 29.4528 29.6755 29.3753C29.2494 29.0654 28.7748 29.0944 28.4939 29.4625C28.1937 29.8499 28.2712 30.276 28.6973 30.6247C29.1622 31.0121 29.6465 31.3995 30.1114 31.7772C30.3826 31.9903 30.6441 32.2034 30.9153 32.4261L31.0508 32.5327C31.2736 32.7167 31.5061 32.9007 31.7288 33.1041C32.2712 33.5884 32.3293 34.1889 31.8935 34.7022C31.322 35.3801 30.6344 35.4964 30.0533 35.0218C29.5012 34.5666 28.9492 34.1017 28.4165 33.6368C28.2034 33.4528 27.9806 33.2688 27.7676 33.0847C27.5254 32.8717 27.2736 32.6683 27.0315 32.4552C26.7603 32.2228 26.4988 32 26.2276 31.7676C25.7046 31.322 25.2203 31.2833 24.891 31.6513C24.7554 31.8063 24.6877 31.9806 24.6973 32.1743C24.7167 32.4358 24.8814 32.707 25.1719 32.9588C25.5303 33.2688 25.8789 33.569 26.2373 33.8789C26.8378 34.3923 27.4286 34.9056 28.0291 35.4286C28.4843 35.8257 28.5811 36.2131 28.339 36.6392C28.0969 37.046 27.4964 37.3172 27.0121 37.046C26.46 36.7361 25.9177 36.3584 25.4044 35.9903C25.2688 35.8935 25.1429 35.8063 25.0073 35.7094C24.9588 35.6804 24.9298 35.5545 24.9298 35.4673C25.0073 34.5085 24.7845 33.724 24.2906 33.1913C23.8063 32.678 23.0605 32.3971 22.1404 32.3971C22.1114 32.3971 22.0823 32.3971 22.0533 32.3971C22.0145 32.3971 21.9758 32.3971 21.9177 32.3971H21.8596C21.7627 31.5254 21.3462 30.8087 20.5908 30.2276C19.9031 29.6949 19.0993 29.5206 18.1308 29.6949C17.4334 27.8644 16.2228 27.138 14.4116 27.4673C14.063 26.2082 13.3269 25.4818 12.2228 25.3075C11.8547 25.2494 11.4576 25.3172 11.0799 25.385C10.9153 25.414 10.7312 25.4431 10.5666 25.4625C10.5085 25.4722 10.4504 25.4818 10.4019 25.4915C10.2954 25.5109 10.1889 25.5303 10.092 25.5109C9.38499 25.3656 8.6586 25.2107 7.96126 25.0654C7.62228 24.9879 7.28329 24.9201 6.94431 24.8523C6.85714 24.8329 6.77966 24.8232 6.68281 24.8136C6.64407 24.8136 6.60533 24.8039 6.56659 24.8039C6.59564 24.5133 6.6247 24.2131 6.65375 23.9225C6.72155 23.2446 6.78935 22.5763 6.85714 21.908C6.91525 21.3366 6.97337 20.7748 7.04116 20.2131C7.16707 19.0702 7.29298 17.8886 7.39952 16.7264C7.41889 16.523 7.45763 16.4068 7.53511 16.3487C7.60291 16.2906 7.70944 16.2712 7.87409 16.2906C7.99032 16.3002 8.11622 16.3002 8.23245 16.3002C8.33898 16.3002 8.44552 16.2906 8.55206 16.3002C10.3341 16.4649 12.1356 16.1356 14.3923 15.2058C15.6416 14.6925 16.9492 14.2663 18.2179 13.8499C18.7119 13.6852 19.2155 13.5206 19.7094 13.3559C19.8354 13.3172 19.9709 13.2881 20.0969 13.2688C19.2833 13.7724 18.7506 14.5375 18.2276 15.2736C18.1114 15.4383 17.9855 15.6126 17.8692 15.7869C17.3559 16.4843 16.8426 17.2107 16.339 17.8983C16.1259 18.1985 15.9031 18.4988 15.6901 18.799C15.3608 19.2542 15.3801 19.5738 15.7676 19.9806C16.7554 21.0363 17.8983 21.5109 19.1574 21.414C19.6901 21.3656 20.3099 21.1235 20.8426 20.7554C21.4334 20.339 21.9661 19.845 22.4891 19.3608C22.6344 19.2252 22.7797 19.0896 22.9249 18.954C24.3971 17.6174 24.5133 17.6077 26.0145 18.7409C28.678 20.7458 31.3801 22.8087 33.9855 24.8039C35.0218 25.5981 36.0484 26.3826 37.0847 27.1671C37.1719 27.2349 37.2591 27.293 37.3366 27.3608C37.6077 27.5642 37.8886 27.7772 38.1501 27.9903C38.7119 28.4552 38.8087 29.0944 38.3923 29.6271C37.9758 30.1695 37.2785 30.2276 36.707 29.7918C36.2228 29.4237 35.7385 29.046 35.2639 28.678C34.3729 27.9903 33.4722 27.293 32.5714 26.6053C32.4262 26.4891 32.2518 26.3632 32.0678 26.3148C31.6804 26.1985 31.3511 26.3438 31.1768 26.7022ZM9.56901 28.2809C9.98547 27.8741 10.46 27.5254 10.9249 27.1864C11.0605 27.0896 11.1961 26.9831 11.3317 26.8862C11.3898 26.8475 11.4867 26.8378 11.5448 26.8378C11.5738 26.8378 11.5932 26.8378 11.6029 26.8378C12.1453 26.8378 12.5617 27.0993 12.7554 27.5642C12.9492 28.0291 12.8329 28.5133 12.4552 28.8232C11.9613 29.2397 11.5157 29.5884 11.0896 29.8886C10.6344 30.2179 10.063 30.1501 9.66586 29.7433C9.29782 29.3462 9.15254 28.6877 9.56901 28.2809ZM12.6683 30.7797C13.2688 30.276 13.9177 29.7433 14.5763 29.2203C14.799 29.046 15.0218 28.9588 15.2639 28.9588C15.4383 28.9588 15.6223 29.0073 15.7966 29.1041C16.3099 29.3947 16.5714 29.753 16.6489 30.2857C16.6102 30.3632 16.5617 30.4407 16.5327 30.5278C16.4455 30.7119 16.3584 30.8959 16.2228 31.0121C15.661 31.5254 15.0218 32.0581 14.2276 32.6877C13.9274 32.9201 13.6077 33.0169 13.2978 32.9685C12.9879 32.9201 12.6877 32.7264 12.4455 32.4068C11.9903 31.8644 12.0872 31.2736 12.6683 30.7797ZM16.3099 33.0847C16.4746 32.9395 16.6489 32.7942 16.8136 32.6392C17.2591 32.2518 17.7143 31.8547 18.1695 31.477C18.3923 31.293 18.6247 31.1961 18.8668 31.1961C19.0412 31.1961 19.2058 31.2446 19.3801 31.3414C19.8063 31.5835 20.2906 31.9322 20.2518 32.5617C20.2324 32.8232 20.0872 33.1429 19.8935 33.3269C19.2349 33.9564 18.5278 34.5472 17.9274 35.0315C17.7918 35.138 17.6271 35.2058 17.4528 35.2736C17.3753 35.3027 17.2978 35.3317 17.23 35.3705C16.6683 35.3027 16.0678 34.8475 15.8838 34.3535C15.7094 33.8789 15.8354 33.4915 16.3099 33.0847ZM36.9007 24.9976C34.0145 22.7797 31.0605 20.5521 28.2034 18.4019L26.7022 17.2688C26.5182 17.1332 26.3245 17.0073 26.1308 16.891C25.9855 16.8039 25.8305 16.707 25.6949 16.6102C25.3559 16.3777 24.9976 16.2518 24.6392 16.2518C24.3196 16.2518 24 16.339 23.6901 16.523C23.1283 16.8426 22.5666 17.2397 21.908 17.7627C21.5884 18.0145 21.2881 18.3051 20.9879 18.5763C20.678 18.8668 20.3584 19.1574 20.0194 19.4189C19.2155 20.0581 18.2082 19.9806 17.3656 19.2349L18.0339 18.3245C18.799 17.2881 19.5835 16.2131 20.368 15.1671C20.4649 15.0412 20.6199 14.9153 20.8426 14.799C22.7797 13.8015 24.8232 13.2688 26.9249 13.2107C28.2615 13.1719 29.5109 13.6368 30.7216 14.0823C30.8475 14.1307 30.9734 14.1695 31.0993 14.2179C32.2906 14.6538 33.4915 15.1283 34.6538 15.5835L34.8862 15.6707C36.1259 16.1646 37.1816 16.3584 38.1985 16.3002C38.586 16.2712 38.9927 16.2809 39.3801 16.2906C39.661 16.2906 39.9419 16.3002 40.2324 16.2906C40.4939 16.2809 40.5811 16.3584 40.6102 16.6199C40.7845 18.4019 40.9685 20.2034 41.1525 21.9467L41.2978 23.3898C41.3269 23.7191 41.3656 24.0387 41.4044 24.368L41.4431 24.7748C41.2397 24.8039 41.0363 24.8329 40.8329 24.862C40.2615 24.9492 39.7191 25.0266 39.1671 25.1138L39.0896 25.1235C38.8959 25.1525 38.7022 25.1816 38.5472 25.2785C37.8983 25.6949 37.4722 25.4334 36.9007 24.9976ZM20.7264 37.1235C20.707 37.1235 20.678 37.1332 20.6683 37.1332H20.6586C20.1356 37.1332 19.7191 36.8814 19.5835 36.4746C19.4383 36.0678 19.5642 35.7288 19.9516 35.4383L20.1356 35.3027C20.6489 34.9249 21.1816 34.5472 21.7143 34.1889C21.9177 34.0533 22.1501 33.9855 22.3729 33.9855C22.6925 33.9855 23.0121 34.1211 23.2058 34.3826C23.4673 34.7119 23.5061 35.2349 23.1283 35.5351C22.5666 35.9806 21.9564 36.3874 21.3656 36.7845C21.23 36.8717 21.1041 36.9588 20.9685 37.0557C20.9007 37.0944 20.7942 37.1138 20.7264 37.1235Z" fill="#CBD5EE"/>
<path d="M23.9903 4.69734C24 4.69734 24 4.69734 24.0097 4.69734C24.2324 4.69734 24.4261 4.61017 24.5714 4.44552C24.7167 4.28087 24.8039 4.04843 24.8039 3.77724C24.8135 3.44794 24.8039 3.10896 24.8039 2.78935C24.8039 2.63438 24.8039 2.47942 24.8039 2.33414C24.8039 2.19855 24.8039 2.06295 24.8039 1.91768C24.8039 1.59806 24.8039 1.25908 24.8039 0.929782C24.7942 0.377724 24.4649 0 24 0C23.9903 0 23.9903 0 23.9806 0C23.5254 0.00968523 23.1961 0.377724 23.1961 0.900726C23.1864 1.84988 23.1864 2.82809 23.1961 3.79661C23.2058 4.31961 23.5254 4.68765 23.9903 4.69734Z" fill="#CBD5EE"/>
<path d="M24.8038 45.6756C24.8038 45.5206 24.8038 45.3559 24.8038 45.201C24.8038 44.862 24.8038 44.5133 24.7941 44.1743C24.7748 43.6804 24.4551 43.3317 24.0193 43.322C23.8159 43.3124 23.6125 43.3898 23.4673 43.5351C23.3026 43.6998 23.2058 43.9322 23.2058 44.1937C23.1961 45.1429 23.1961 46.1404 23.2058 47.138C23.2154 47.6513 23.5447 48.0194 23.9999 48.0194H24.0096C24.4648 48.0194 24.7941 47.6513 24.8038 47.1283C24.8135 46.7797 24.8135 46.431 24.8038 46.092C24.8038 45.9564 24.8038 45.8208 24.8038 45.6756Z" fill="#CBD5EE"/>
<path d="M33.6465 7.2736C33.7724 7.35108 33.908 7.38983 34.0436 7.38983C34.1017 7.38983 34.1598 7.38014 34.218 7.37046C34.4407 7.31234 34.6247 7.15738 34.77 6.91525C35.2833 6.05326 35.7773 5.18159 36.2422 4.36803C36.2906 4.28087 36.3293 4.17433 36.3778 4.03874C36.4068 3.97094 36.4262 3.88377 36.4649 3.78692L36.4746 3.75786L36.4456 3.73849C36.3874 3.68038 36.3293 3.62227 36.2615 3.55447C36.1163 3.39951 35.9613 3.24455 35.7773 3.15738C35.448 3.0121 35.109 3.15738 34.8766 3.55447C34.4407 4.30024 33.9177 5.19128 33.4044 6.11138C33.1526 6.56658 33.2494 7.03147 33.6465 7.2736Z" fill="#CBD5EE"/>
<path d="M13.2106 6.90557C13.3947 7.2155 13.6658 7.38984 13.937 7.38984C14.0629 7.38984 14.1985 7.35109 14.3341 7.27361C14.7409 7.04117 14.8378 6.57628 14.5859 6.12107C14.0726 5.21066 13.6174 4.3971 13.1041 3.57386C13.0073 3.40921 12.8329 3.29298 12.707 3.2155C12.6586 3.18645 12.6198 3.15739 12.5908 3.12833L12.5811 3.11865H12.5617C12.1937 3.10896 11.8838 3.25424 11.7288 3.51574C11.5738 3.75787 11.5835 4.07749 11.7385 4.35836C12.2615 5.28814 12.8039 6.20824 13.2106 6.90557Z" fill="#CBD5EE"/>
<path d="M14.3342 40.7458C13.9274 40.523 13.54 40.6102 13.3269 40.9589C12.678 42.0145 12.1356 42.9637 11.6707 43.8451C11.5642 44.0484 11.5739 44.2809 11.7095 44.494C11.8741 44.7555 12.1744 44.9104 12.5133 44.9104C12.523 44.9104 12.5424 44.9104 12.5521 44.9104H12.5715L12.5811 44.9007C12.6102 44.8814 12.6392 44.862 12.6877 44.8426C12.8039 44.7748 12.9782 44.6877 13.0654 44.5424C13.5787 43.6901 14.1017 42.7894 14.6538 41.7821C14.7506 41.6078 14.77 41.4044 14.7119 41.2204C14.6538 41.0073 14.5182 40.8426 14.3342 40.7458Z" fill="#CBD5EE"/>
<path d="M34.7507 41.0751C34.6538 40.9104 34.4698 40.8039 34.3439 40.7264C34.2955 40.6973 34.2567 40.6683 34.2277 40.6489L34.218 40.6392H34.1986C33.8306 40.6392 33.5303 40.7942 33.3754 41.0557C33.2301 41.2978 33.2398 41.5884 33.385 41.8692C33.879 42.77 34.4214 43.6804 34.8766 44.4649C35.0509 44.7651 35.3124 44.9201 35.5836 44.9201C35.7095 44.9201 35.8354 44.891 35.9613 44.8232C36.155 44.7167 36.2906 44.5617 36.3487 44.368C36.4165 44.155 36.3778 43.9128 36.2519 43.6804C35.816 42.8668 35.293 41.9467 34.7507 41.0751Z" fill="#CBD5EE"/>
</g>
<defs>
<clipPath id="clip0_33_1711">
<rect width="48" height="48.0194" fill="white"/>
</clipPath>
</defs>
</svg>
