<svg width="50" height="37" viewBox="0 0 50 37" fill="none" xmlns="http://www.w3.org/2000/svg">
<path d="M3.30482 26.3518C5.38444 27.1556 7.47411 27.9593 9.55373 28.763C14.9387 30.8326 20.3236 32.9022 25.7085 34.9818C26.1003 35.1325 26.3414 35.1124 26.6629 34.8009C33.4644 27.9693 40.2859 21.1578 47.1075 14.3463C47.2482 14.2056 47.419 14.0951 47.6601 13.9143C47.3888 13.7535 47.2281 13.6732 47.0874 13.5827C46.6655 13.3416 46.5248 12.9599 46.7057 12.568C46.8865 12.1762 47.2883 11.9853 47.7103 12.1662C48.2629 12.4073 48.8054 12.6786 49.3177 12.9799C49.7397 13.2311 49.81 13.7133 49.5086 14.1052C49.4082 14.2358 49.2876 14.3563 49.167 14.4668C41.8833 21.7505 34.5896 29.0343 27.3159 36.3381C26.8337 36.8303 26.4017 36.9007 25.7688 36.6595C17.7115 33.5451 9.6542 30.4508 1.58687 27.3464C0.300915 26.8542 -0.221503 25.7993 0.0999851 24.4731C0.351147 23.4183 0.883611 22.5442 1.6371 21.7706C8.14722 15.1199 14.6473 8.45902 21.1273 1.7781C22.3831 0.482101 23.8197 -0.0704568 25.608 0.00991524C30.2796 0.210845 34.9613 0.34145 39.6329 0.51224C42.4258 0.612705 45.2087 0.71317 48.0016 0.803589C48.3834 0.813635 48.6848 0.934193 48.8456 1.30591C49.0364 1.74796 48.7853 2.03931 48.504 2.32061C44.3045 6.51 40.1252 10.7195 35.9157 14.8988C30.9929 19.7814 25.1057 22.9461 18.3545 24.4932C16.2447 24.9755 14.0847 24.9956 11.9247 24.9051C9.32266 24.7846 6.71058 24.7243 4.10853 24.6439C3.99802 24.6439 3.87747 24.654 3.75691 24.7444C4.96249 25.0157 6.16807 25.297 7.38369 25.5682C13.2609 26.8843 19.128 28.2004 25.0052 29.5366C25.3368 29.6069 25.5277 29.5366 25.7487 29.3156C32.5803 22.4739 39.432 15.6322 46.2636 8.79056C46.3641 8.69009 46.4545 8.56953 46.5951 8.40879C46.3339 8.32842 46.133 8.27819 45.9421 8.18777C45.5704 8.01698 45.3695 7.71558 45.48 7.29363C45.5804 6.89177 45.8818 6.63056 46.2937 6.72098C47.0372 6.89177 47.7806 7.0927 48.504 7.35391C48.9259 7.5046 49.0364 8.03707 48.7853 8.41884C48.6748 8.57958 48.5241 8.72023 48.3834 8.86088C41.0897 16.1345 33.806 23.4082 26.5423 30.702C26.0802 31.1641 25.6583 31.2847 25.0253 31.144C17.8722 29.5064 10.7191 27.899 3.56602 26.2916C3.48565 26.2715 3.40528 26.2715 3.32491 26.2614C3.31486 26.2815 3.31486 26.3117 3.30482 26.3518ZM46.2536 2.31056C45.9622 2.29047 45.7814 2.28042 45.6005 2.28042C43.2296 2.20005 40.8586 2.11968 38.4876 2.03931C33.9767 1.88861 29.4759 1.72787 24.965 1.56712C23.9805 1.53698 23.1868 1.89866 22.5037 2.59187C16.0036 9.26274 9.49345 15.9336 2.98333 22.6045C2.88286 22.715 2.79244 22.8356 2.64175 23.0164C2.88286 23.0365 3.01347 23.0465 3.14407 23.0566C5.94704 23.1571 8.75001 23.2676 11.553 23.3278C12.5777 23.3479 13.6427 23.3781 14.6373 23.1771C17.0786 22.6849 18.8869 21.1478 20.4039 19.2691C21.3483 18.0936 22.1922 16.8579 22.5037 15.3308C22.6142 14.8084 23.1667 14.6175 23.659 14.8787C25.8491 16.0542 28.2 16.3958 30.6413 16.1245C31.8368 15.9939 32.952 15.6121 33.8361 14.7381C37.8446 10.7396 41.8532 6.74107 45.8617 2.73252C45.9723 2.63205 46.0727 2.51149 46.2536 2.31056ZM29.8677 17.8525C28.7626 17.742 27.7379 17.7018 26.7533 17.521C25.7487 17.3401 24.7641 17.0287 23.7394 16.7775C22.7548 19.038 21.2579 20.9569 19.3792 22.6145C23.1466 21.6601 26.5624 19.9924 29.8677 17.8525Z" fill="#CBD5EE"/>
<path d="M31.7168 5.93749C30.2199 5.88726 28.7129 5.83703 27.2159 5.78679C26.583 5.7667 26.2414 5.38493 26.362 4.84242C26.4725 4.36019 26.8342 4.21954 27.2662 4.23963C29.3659 4.30996 31.4656 4.38029 33.5754 4.45061C34.4595 4.48075 35.3436 4.51089 36.2277 4.54103C36.5893 4.55108 36.9309 4.63145 37.1117 4.99312C37.383 5.53563 36.9912 6.08819 36.3281 6.08819C34.791 6.09824 33.2539 6.08819 31.7268 6.08819C31.7168 6.03796 31.7168 5.98772 31.7168 5.93749Z" fill="#CBD5EE"/>
<path d="M28.4818 9.2026C27.4671 9.2026 26.4424 9.21264 25.4277 9.2026C24.8952 9.19255 24.5637 8.87106 24.5737 8.41897C24.5838 7.97692 24.9354 7.66548 25.4578 7.67553C27.4068 7.72576 29.3659 7.79609 31.3149 7.85637C31.4355 7.85637 31.546 7.87646 31.6665 7.89655C32.0885 7.96688 32.3698 8.30846 32.3396 8.69022C32.3095 9.09208 32.0081 9.39348 31.5761 9.40353C30.5413 9.41357 29.5065 9.40353 28.4717 9.40353C28.4818 9.3332 28.4818 9.27292 28.4818 9.2026Z" fill="#CBD5EE"/>
</svg>
