<svg width="35" height="44" viewBox="0 0 35 44" fill="none" xmlns="http://www.w3.org/2000/svg">
<path d="M35 12.3985C35 11.6208 34.9913 10.8255 35 10.039C35.0087 8.89897 34.3398 7.97107 33.3408 7.7148C32.9846 7.62642 32.6111 7.60875 32.2462 7.59991H32.142C30.7173 7.54689 29.2666 7.28178 27.8506 6.83992C24.5148 5.7883 21.6654 3.84414 19.3807 1.06928C19.0159 0.627428 18.5555 0.291617 18.1124 0.132549C17.2177 -0.194424 16.3663 0.106038 15.6714 0.980912C13.9253 3.18135 11.7535 4.88692 9.20824 6.05342C7.09729 7.0255 4.81261 7.54689 2.22388 7.65294C0.886076 7.69712 0.00868702 8.65153 0 10.0655C0 10.9934 0 11.9389 0 12.858C0 13.2645 0 13.671 0 14.0775V14.2543H0.0694962C0.0694962 14.5547 0.0608091 14.864 0.0608091 15.1645C0.0521221 15.9775 0.0434351 16.8259 0.0781832 17.6566C0.138992 18.8672 0.251924 20.0691 0.425664 21.2179C1.29437 27.0504 3.44875 32.1759 6.83668 36.4619C9.74684 40.147 13.0653 42.5861 16.9918 43.9205C17.1395 43.9735 17.3132 44 17.487 44C17.6694 44 17.8518 43.9735 18.0082 43.9205C20.9878 42.9219 23.6895 41.1986 26.0437 38.8038C28.7627 36.0378 30.891 32.8476 32.3591 29.3127C33.7491 25.9634 34.6004 22.2165 34.8784 18.1603C35.0174 16.2426 35.0087 14.2896 35 12.3985ZM1.70266 11.9478C1.70266 11.3292 1.70266 10.7106 1.70266 10.1008C1.70266 9.54408 1.8764 9.3585 2.41499 9.34082C8.2961 9.12873 13.1956 6.67202 16.9918 2.0502C17.1656 1.83811 17.3306 1.73207 17.487 1.73207C17.652 1.73207 17.8431 1.86462 18.0429 2.11206C20.6404 5.32877 23.9414 7.52038 27.868 8.64269C29.3795 9.07571 30.9171 9.30548 32.4373 9.34082C33.1497 9.3585 33.2887 9.49989 33.2887 10.2245C33.2887 11.011 33.2887 11.8064 33.2887 12.7343V14.1747C33.3408 16.7021 33.2279 18.8407 32.9412 20.7142C31.89 27.6248 29.2666 33.1303 24.9057 37.5489C22.7861 39.6963 20.3971 41.2517 17.8084 42.1707C17.626 42.2414 17.3654 42.2414 17.1829 42.1707C14.2641 41.1191 11.7101 39.3605 9.36461 36.7977C5.75949 32.8476 3.45743 28.102 2.31075 22.2695C1.88508 20.0868 1.67659 17.7538 1.69397 15.3412C1.71134 14.2101 1.71134 13.0613 1.70266 11.9478Z" fill="#CBD5EE"/>
<path d="M11.962 32.7769C13.8384 32.7857 15.6974 32.7857 17.5304 32.7857C19.4068 32.7857 21.2484 32.7857 23.0553 32.7769C24.2976 32.768 25.2705 31.7871 25.2792 30.5322C25.2966 27.4569 25.2966 24.3551 25.2792 21.3151C25.2705 20.0691 24.3237 19.097 23.064 19.0617C22.9164 19.0528 22.7687 19.0617 22.6036 19.0617C22.5776 19.0617 22.5428 19.0617 22.5081 19.0617C22.5081 19.0351 22.5081 18.9998 22.5081 18.9733C22.5081 18.8054 22.5081 18.6463 22.5081 18.4872C22.4994 18.2045 22.4994 17.9128 22.4994 17.63C22.4994 16.9849 22.4994 16.3133 22.4212 15.6505C22.178 13.5296 20.4927 11.7357 18.4165 11.3822C16.1752 11.0022 14.0122 12.0892 13.0218 14.0952C12.657 14.8464 12.4746 15.6505 12.4746 16.5608C12.4746 17.1705 12.4746 17.7714 12.4746 18.39V19.0528C12.4485 19.0528 12.4224 19.0528 12.3964 19.0528C12.24 19.0528 12.0923 19.0528 11.9447 19.0528C10.6763 19.0882 9.71209 20.0691 9.7034 21.324C9.68603 24.249 9.68603 27.3332 9.7034 30.4969C9.72077 31.7694 10.7111 32.768 11.962 32.7769ZM11.4147 21.5095C11.4147 20.9528 11.5798 20.7937 12.1358 20.7849C12.9176 20.7849 13.7081 20.7849 14.4899 20.7849C15.0025 20.7849 15.5063 20.7849 16.0189 20.7849H19.4329C20.5795 20.7849 21.7262 20.7849 22.8729 20.7849C23.4202 20.7849 23.5853 20.9528 23.5853 21.5095C23.5853 24.4346 23.5853 27.3509 23.5853 30.276C23.5853 30.8946 23.4376 31.0448 22.8208 31.0448C19.2591 31.0448 15.6888 31.0448 12.1271 31.0448C11.5798 31.0448 11.4147 30.8769 11.4147 30.3113C11.4147 27.3774 11.4147 24.4435 11.4147 21.5095ZM14.2815 15.7477C14.5334 14.0245 16.0797 12.858 17.8605 13.0347C19.5284 13.2027 20.7967 14.6431 20.8054 16.3928C20.8141 17.0203 20.8054 17.6477 20.8054 18.3017C20.8054 18.5403 20.8054 18.7877 20.8054 19.0351H14.2033C14.2033 18.717 14.1946 18.3989 14.1946 18.0984C14.1859 17.3207 14.1685 16.5166 14.2815 15.7477Z" fill="#CBD5EE"/>
<path d="M16.1579 26.6174C16.6357 26.909 16.6965 27.236 16.653 27.7397C16.6443 27.8192 16.6443 27.8988 16.653 27.9695C16.653 28.0048 16.653 28.0313 16.653 28.0667V28.5085C16.653 28.5616 16.653 28.6057 16.653 28.6588C16.653 28.7736 16.653 28.8885 16.653 29.0034C16.6704 29.5602 17.0092 29.9401 17.4783 29.9578C17.487 29.9578 17.4957 29.9578 17.5044 29.9578C17.7129 29.9578 17.9127 29.8783 18.0603 29.7369C18.2428 29.5601 18.347 29.295 18.347 28.9946C18.3557 28.3848 18.3644 27.8281 18.347 27.2713C18.3383 27.0327 18.3904 26.9444 18.6076 26.8295C19.4676 26.3611 19.902 25.336 19.6674 24.3374C19.4416 23.3742 18.5989 22.6584 17.6173 22.5965C16.6791 22.5346 15.7583 23.1621 15.4195 24.0723C15.0372 25.0709 15.35 26.1225 16.1579 26.6174ZM16.9658 24.8588C16.9658 24.7086 17.0179 24.576 17.1221 24.47C17.2177 24.3728 17.3567 24.3109 17.4957 24.3109C17.791 24.3109 18.0343 24.5583 18.0343 24.8588C18.0343 25.0002 17.9821 25.1416 17.8779 25.2476C17.7737 25.3537 17.6434 25.4067 17.5044 25.4067C17.2003 25.3979 16.9658 25.1593 16.9658 24.8588Z" fill="#CBD5EE"/>
</svg>
