<svg width="14" height="12" viewBox="0 0 14 12" xmlns="http://www.w3.org/2000/svg">
<path d="M12.0909 0.272705H1.90909C1.40277 0.272705 0.917184 0.473841 0.55916 0.831865C0.201136 1.18989 0 1.67547 0 2.1818V9.81816C0 10.3245 0.201136 10.8101 0.55916 11.1681C0.917184 11.5261 1.40277 11.7273 1.90909 11.7273H12.0909C12.5972 11.7273 13.0828 11.5261 13.4408 11.1681C13.7989 10.8101 14 10.3245 14 9.81816V2.1818C14 1.67547 13.7989 1.18989 13.4408 0.831865C13.0828 0.473841 12.5972 0.272705 12.0909 0.272705ZM11.8822 8.30361C11.9468 8.359 11.9996 8.42678 12.0376 8.50295C12.0755 8.57912 12.0978 8.66212 12.1031 8.74706C12.1084 8.83199 12.0967 8.91712 12.0685 8.99742C12.0403 9.07772 11.9963 9.15156 11.9391 9.21455C11.8819 9.27755 11.8126 9.32844 11.7354 9.3642C11.6582 9.39996 11.5746 9.41986 11.4895 9.42274C11.4045 9.42562 11.3197 9.41141 11.2403 9.38096C11.1608 9.3505 11.0882 9.30442 11.0269 9.24543L8.39045 6.85271C7.97875 7.12738 7.49492 7.27397 7 7.27397C6.50508 7.27397 6.02125 7.12738 5.60955 6.85271L2.97309 9.24543C2.84735 9.35323 2.68453 9.40776 2.51922 9.39743C2.35392 9.3871 2.19916 9.31273 2.08781 9.19011C1.97646 9.0675 1.91731 8.90631 1.92291 8.74077C1.92852 8.57524 1.99844 8.41842 2.11782 8.30361L4.63527 6.01843L2.11718 3.72816C2.05534 3.67192 2.00518 3.60405 1.96957 3.52842C1.93396 3.4528 1.9136 3.3709 1.90964 3.2874C1.90164 3.11877 1.96096 2.95387 2.07455 2.82898C2.18813 2.70409 2.34668 2.62943 2.51531 2.62143C2.68394 2.61344 2.84883 2.67276 2.97373 2.78634L6.14218 5.66843C6.37714 5.8824 6.68349 6.00099 7.00127 6.00099C7.31906 6.00099 7.62541 5.8824 7.86036 5.66843L11.0263 2.78634C11.1512 2.67276 11.3161 2.61344 11.4847 2.62143C11.6533 2.62943 11.8119 2.70409 11.9255 2.82898C12.039 2.95387 12.0984 3.11877 12.0904 3.2874C12.0824 3.45603 12.0077 3.61457 11.8828 3.72816L9.36536 6.01907L11.8822 8.30361Z"/>
</svg>
