<svg width="21" height="20" viewBox="0 0 21 20" fill="none" xmlns="http://www.w3.org/2000/svg">
<path d="M13.9 14.32C12.2927 15.5685 10.27 16.1576 8.24363 15.9671C6.21729 15.7766 4.33973 14.821 2.99324 13.2948C1.64675 11.7686 0.932584 9.78661 0.996151 7.75234C1.05972 5.71806 1.89624 3.7845 3.33539 2.34535C4.77455 0.906196 6.70811 0.0696715 8.74238 0.00610398C10.7767 -0.0574636 12.7587 0.656705 14.2849 2.00319C15.8111 3.34968 16.7667 5.22725 16.9571 7.25358C17.1476 9.27992 16.5586 11.3027 15.31 12.91L20.66 18.24L19.24 19.66L13.91 14.32H13.9ZM9 14C9.78793 14 10.5681 13.8448 11.2961 13.5432C12.0241 13.2417 12.6855 12.7997 13.2426 12.2426C13.7998 11.6854 14.2417 11.024 14.5433 10.2961C14.8448 9.5681 15 8.78788 15 7.99995C15 7.21202 14.8448 6.43181 14.5433 5.70385C14.2417 4.9759 13.7998 4.31446 13.2426 3.75731C12.6855 3.20016 12.0241 2.7582 11.2961 2.45667C10.5681 2.15515 9.78793 1.99995 9 1.99995C7.4087 1.99995 5.88258 2.63209 4.75736 3.75731C3.63214 4.88253 3 6.40865 3 7.99995C3 9.59125 3.63214 11.1174 4.75736 12.2426C5.88258 13.3678 7.4087 14 9 14Z" fill="white"/>
</svg>
