<svg width="14" height="13" viewBox="0 0 14 13" xmlns="http://www.w3.org/2000/svg">
<path fill-rule="evenodd" clip-rule="evenodd" d="M13.8404 0.904676L11.6982 11.7094C11.6982 11.7094 11.3982 12.4594 10.5732 12.0984L7.45533 9.70754L7.52148 9.75932L5.5668 11.5453C5.5668 11.5453 5.41211 11.6624 5.24805 11.5874L5.34378 10.7414L5.64219 8.21722C5.64219 8.21722 11.1266 3.28597 11.3516 3.07504C11.5766 2.86879 11.5016 2.82191 11.5016 2.82191C11.5203 2.56879 11.0984 2.82191 11.0984 2.82191L3.82812 7.4391C3.82812 7.4391 3.82813 7.43912 3.82814 7.43915L3.82793 7.43905L0.799802 6.42186C0.799802 6.42186 0.33574 6.2578 0.288865 5.89686C0.24199 5.53593 0.813865 5.34374 0.813865 5.34374L12.8514 0.623426C12.8514 0.618739 13.8404 0.182802 13.8404 0.904676Z"/>
</svg>
