<svg width="16" height="16" viewBox="0 0 16 16" xmlns="http://www.w3.org/2000/svg">
<path d="M13.3149 2.65437C11.9045 1.24249 10.0293 0.464744 8.03131 0.463806C3.91494 0.463806 0.563937 3.81406 0.562625 7.93212C0.561875 9.24874 0.905938 10.5337 1.55938 11.6658L0.5 15.5362L4.45906 14.4978C5.55013 15.0924 6.77825 15.4061 8.02831 15.4066H8.0315C12.1479 15.4066 15.4983 12.0558 15.5 7.93793C15.5009 5.94256 14.7245 4.06606 13.3149 2.65437ZM8.0315 14.1451H8.02906C6.91475 14.1447 5.82238 13.8455 4.86913 13.28L4.64244 13.1454L2.29306 13.7617L2.91988 11.4712L2.77231 11.2357C2.15075 10.2476 1.82244 9.10549 1.82319 7.93212C1.82431 4.50968 4.60925 1.72512 8.03338 1.72512C9.69163 1.72549 11.2499 2.37218 12.4222 3.54574C13.5943 4.71912 14.2393 6.27856 14.2389 7.93737C14.2378 11.3604 11.4528 14.1451 8.0315 14.1451ZM11.4365 9.49606C11.2498 9.40249 10.3323 8.95156 10.1611 8.88874C9.98994 8.82649 9.866 8.79556 9.7415 8.98231C9.617 9.16906 9.25944 9.58962 9.15031 9.71412C9.04156 9.83862 8.93281 9.85437 8.74606 9.76081C8.55931 9.66724 7.95819 9.47037 7.24588 8.83437C6.69088 8.33993 6.31625 7.72831 6.2075 7.54156C6.09875 7.35481 6.19588 7.25412 6.28944 7.16093C6.37344 7.07731 6.47619 6.94306 6.56938 6.83393C6.66256 6.72481 6.69369 6.64699 6.75594 6.52268C6.81819 6.39818 6.78725 6.28924 6.74038 6.19587C6.6935 6.10231 6.32038 5.18374 6.16513 4.81006C6.01344 4.44612 5.85969 4.49543 5.74531 4.48981C5.63619 4.48456 5.51188 4.48306 5.38756 4.48306C5.26325 4.48306 5.06094 4.52974 4.88994 4.71668C4.71913 4.90343 4.23688 5.35474 4.23688 6.27368C4.23688 7.19206 4.9055 8.07968 4.99888 8.20399C5.09225 8.32831 6.31475 10.2136 8.18675 11.0219C8.63188 11.2139 8.97969 11.3289 9.25063 11.4151C9.69763 11.5574 10.1045 11.537 10.4263 11.489C10.7848 11.4356 11.5303 11.0377 11.6861 10.6017C11.8415 10.166 11.8415 9.79249 11.7944 9.71449C11.7474 9.63631 11.6229 9.58962 11.4365 9.49606Z"/>
</svg>
