<?xml version="1.0" encoding="UTF-8"?>
<!DOCTYPE svg PUBLIC "-//W3C//DTD SVG 1.1//EN" "http://www.w3.org/Graphics/SVG/1.1/DTD/svg11.dtd">
<svg xmlns="http://www.w3.org/2000/svg" xmlns:xlink="http://www.w3.org/1999/xlink">
	<defs>
		<clipPath id="icon-02-a">
			<path fill="#fff" d="M0 0h48v48.019H0z"/>
		</clipPath>
	</defs>
<symbol id="arrow-left" viewBox="0 0 27 14">
	<path fill="#BC9C6C" stroke="#BC9C6C" d="M3.5 6.5h23v1h-23z"/>
	<path stroke="#BC9C6C" stroke-width="2" d="M8 1.343 2.343 7 8 12.657"/>
</symbol>
<symbol id="arrow-right" viewBox="0 0 27 13">
	<path d="M23.5 7H.5V6h23z"/>
	<path d="M19 12.157 24.657 6.5 19 .843"/>
</symbol>
<symbol id="call" viewBox="0 0 12 12">
	<path d="m11.981 9.07-.545 2.362a.729.729 0 0 1-.714.568C4.81 12 0 7.192 0 1.277 0 .934.234.64.568.564L2.93.019a.738.738 0 0 1 .84.425l1.091 2.543c.128.3.042.649-.21.854L3.388 4.876a8.195 8.195 0 0 0 3.74 3.738L8.16 7.353a.73.73 0 0 1 .855-.21l2.543 1.09c.325.14.503.496.423.838Z"/>
</symbol>
<symbol id="icon-01" viewBox="0 0 35 44">
	<path fill="#CBD5EE" d="M35 12.399c0-.778-.009-1.573 0-2.36.009-1.14-.66-2.068-1.66-2.324-.355-.089-.729-.106-1.094-.115h-.104a16.54 16.54 0 0 1-4.291-.76c-3.336-1.052-6.186-2.996-8.47-5.77-.365-.443-.826-.778-1.269-.937-.894-.327-1.746-.027-2.44.848a17.464 17.464 0 0 1-6.464 5.072c-2.11.973-4.395 1.494-6.984 1.6C.886 7.697.009 8.652 0 10.066v4.188h.07c0 .3-.01.61-.01.91-.008.813-.017 1.662.018 2.493.061 1.21.174 2.412.348 3.56.868 5.833 3.023 10.959 6.41 15.245 2.91 3.685 6.23 6.124 10.156 7.458a1.655 1.655 0 0 0 1.016 0c2.98-.998 5.681-2.721 8.036-5.116 2.719-2.766 4.847-5.956 6.315-9.491 1.39-3.35 2.241-7.096 2.52-11.153.138-1.917.13-3.87.121-5.761Zm-33.297-.451V10.1c0-.557.173-.743.712-.76 5.881-.212 10.78-2.669 14.577-7.29.174-.213.339-.319.495-.319.165 0 .356.133.556.38 2.597 3.217 5.898 5.408 9.825 6.53 1.512.434 3.05.663 4.57.699.712.018.85.159.85.884V14.175c.053 2.527-.06 4.666-.347 6.54-1.051 6.91-3.674 12.415-8.035 16.834-2.12 2.147-4.509 3.703-7.098 4.622a.949.949 0 0 1-.625 0c-2.919-1.052-5.473-2.81-7.818-5.373-3.606-3.95-5.908-8.696-7.054-14.529-.426-2.182-.634-4.515-.617-6.928.017-1.13.017-2.28.009-3.393Z"/>
	<path fill="#CBD5EE" d="M11.962 32.777c1.876.009 3.735.009 5.568.009 1.877 0 3.718 0 5.525-.01 1.243-.008 2.215-.989 2.224-2.244.018-3.075.018-6.177 0-9.217-.009-1.246-.955-2.218-2.215-2.253-.148-.01-.295 0-.46 0h-.096v-.575c-.009-.282-.009-.574-.009-.857 0-.645 0-1.317-.078-1.98-.243-2.12-1.928-3.914-4.005-4.268-2.24-.38-4.404.707-5.394 2.713-.365.751-.547 1.555-.547 2.466v2.492h-.53c-1.269.035-2.233 1.016-2.242 2.271a807.05 807.05 0 0 0 0 9.173c.018 1.272 1.008 2.271 2.259 2.28Zm-.547-11.268c0-.556.165-.715.72-.724h10.738c.547 0 .712.168.712.724v8.767c0 .619-.147.769-.764.769H12.127c-.547 0-.712-.168-.712-.734V21.51Zm2.867-5.761c.251-1.723 1.798-2.89 3.578-2.713 1.668.168 2.937 1.608 2.945 3.358.01.627 0 1.255 0 1.909v.733h-6.602c0-.318-.008-.636-.008-.937-.01-.777-.027-1.581.086-2.35Z"/>
	<path fill="#CBD5EE" d="M16.158 26.617c.478.292.538.619.495 1.123-.009.08-.009.159 0 .23v1.033c.017.557.356.937.825.955h.026c.209 0 .409-.08.556-.221.183-.177.287-.442.287-.742.009-.61.017-1.167 0-1.724-.009-.238.043-.327.26-.442.86-.468 1.295-1.493 1.06-2.492a2.27 2.27 0 0 0-2.05-1.74c-.938-.062-1.859.565-2.198 1.475-.382.999-.069 2.05.739 2.545Zm.808-1.758a.538.538 0 0 1 .53-.548.553.553 0 0 1 .382.937.515.515 0 0 1-.374.159.546.546 0 0 1-.538-.548Z"/>
</symbol>
<symbol id="icon-02" viewBox="0 0 48 49">
	<g fill="#CBD5EE" clip-path="url(#icon-02-a)">
		<path d="M47.225 27.08c-.184-.02-.378-.01-.562-.01h-3.389l-1.376-13.065c.039 0 .087-.01.126-.01.097-.01.184-.02.262-.02h4.793c.291 0 .543-.096.718-.27a.737.737 0 0 0 .213-.543c0-.474-.378-.794-.94-.794-2.14-.01-4.068-.01-5.898 0-.34 0-.581.097-.746.271-.165.184-.223.455-.184.804.03.281.058.562.087.862.01.126.03.252.039.378-.203 0-.397 0-.59.01-.475.01-.92.01-1.366-.01-.146-.01-.3-.01-.446-.02-.581-.019-1.181-.048-1.724-.222-1.356-.436-2.702-.979-4.01-1.492l-.59-.232c-2.906-1.153-5.211-1.385-7.477-.756-.117.03-.252 0-.388-.02l-.097-.019c-1.394-.261-2.837-.523-4.242-.106-1.636.484-3.496 1.036-5.25 1.782-2.207.94-4.115 1.288-6.014 1.114-.126-.01-.251-.01-.377-.01H7.65c.01-.135.03-.261.04-.387.028-.29.057-.543.086-.804.049-.378-.01-.668-.174-.852-.165-.184-.426-.281-.794-.281H1.007c-.61 0-.997.31-1.007.794a.73.73 0 0 0 .203.533c.175.174.436.27.766.27H6.092L4.717 27.07H.91c-.29 0-.542.097-.716.271a.852.852 0 0 0-.194.552c.01.465.378.785.9.785 1.57.01 3.023.01 4.446 0 .543 0 .843-.28.901-.833.01-.126.02-.242.039-.368.02-.242.038-.494.087-.736.02-.116.155-.281.194-.281.58.049 1.152.116 1.81.184.156.02.32.039.485.058-1.056 1.017-1.346 2.044-.91 3.196.426 1.104 1.307 1.715 2.624 1.802.03.91.436 1.666 1.192 2.266.687.542 1.5.707 2.479.513.64 1.812 1.656 2.45 3.738 2.344l.01.01c.01.01.03.02.03.039.425.94 1.065 1.559 1.85 1.772.203.058.416.087.638.087.6 0 1.23-.213 1.85-.639.155-.106.31-.213.465-.31.31-.203.63-.426.93-.649.194-.145.33-.135.542.01.436.32.92.658 1.55 1.075.678.445 1.346.6 2.053.455 1.046-.203 1.753-.823 2.102-1.84 2.179.068 2.925-.397 3.767-2.325h.04c2.372 0 2.973-.464 3.67-2.799 1.307-.087 2.179-.716 2.596-1.85.416-1.133.125-2.14-.901-3.167.174-.019.339-.038.503-.058.6-.067 1.163-.135 1.724-.174.058-.01.213.165.242.28.049.253.068.505.088.756.01.136.019.262.038.398.049.474.33.765.746.774 1.56.03 3.157.03 4.736 0 .426-.01.717-.3.746-.774.03-.407-.32-.775-.775-.814Zm-16.048-.378c-.175.368-.097.727.213.969.261.213.523.416.784.61.146.116.29.223.436.339.233.184.475.368.707.552.669.523 1.356 1.056 2.024 1.598.572.455.659 1.085.233 1.627-.262.33-.572.523-.9.562-.301.039-.611-.058-.892-.281-.872-.697-1.763-1.404-2.615-2.102-.368-.3-.746-.6-1.114-.9l-.077-.068c-.097-.078-.194-.155-.3-.233-.427-.31-.901-.28-1.182.087-.3.388-.223.814.203 1.163.465.387.95.774 1.414 1.152.272.213.533.426.804.65l.136.106c.223.184.455.368.678.571.542.484.6 1.085.165 1.598-.572.678-1.26.794-1.84.32a76.87 76.87 0 0 1-1.637-1.385c-.214-.184-.436-.368-.65-.552-.242-.213-.493-.417-.735-.63l-.804-.687c-.523-.446-1.008-.485-1.337-.117a.72.72 0 0 0-.194.523c.02.262.184.533.475.785l1.065.92c.6.513 1.192 1.027 1.792 1.55.455.397.552.784.31 1.21-.242.407-.843.678-1.327.407-.552-.31-1.094-.688-1.608-1.056l-.397-.28c-.048-.03-.077-.156-.077-.243.077-.959-.145-1.743-.64-2.276-.484-.513-1.23-.794-2.15-.794h-.28c-.097-.872-.514-1.588-1.27-2.17-.687-.532-1.49-.706-2.46-.532-.697-1.83-1.907-2.557-3.718-2.228-.349-1.259-1.085-1.985-2.19-2.16-.367-.058-.764.01-1.142.078a9.465 9.465 0 0 1-.513.077c-.059.01-.117.02-.165.03a.85.85 0 0 1-.31.019c-.707-.145-1.433-.3-2.13-.446-.34-.077-.679-.145-1.018-.213a2.097 2.097 0 0 0-.261-.038c-.039 0-.078-.01-.116-.01l.087-.881.203-2.015c.058-.571.116-1.133.184-1.695.126-1.143.252-2.324.359-3.487.019-.203.058-.32.135-.377.068-.058.174-.078.34-.058.115.01.241.01.357.01.107 0 .214-.01.32 0 1.782.164 3.584-.165 5.84-1.095 1.25-.513 2.557-.94 3.826-1.356.494-.165.997-.33 1.491-.494.126-.039.262-.068.388-.087-.814.503-1.346 1.268-1.87 2.005-.116.164-.242.339-.358.513-.513.697-1.026 1.424-1.53 2.111-.213.3-.436.6-.649.901-.33.455-.31.775.078 1.182.987 1.055 2.13 1.53 3.39 1.433.532-.048 1.152-.29 1.685-.659.59-.416 1.123-.91 1.646-1.394l.436-.407c1.472-1.337 1.588-1.346 3.09-.213 2.663 2.005 5.365 4.068 7.97 6.063 1.037.794 2.063 1.579 3.1 2.363.087.068.174.126.252.194.27.203.552.416.813.63.562.464.659 1.103.242 1.636-.416.543-1.114.6-1.685.165-.484-.368-.968-.746-1.443-1.114-.891-.688-1.792-1.385-2.693-2.073-.145-.116-.32-.242-.503-.29-.388-.117-.717.029-.891.387ZM9.569 28.281c.416-.407.891-.756 1.356-1.095.135-.096.271-.203.407-.3a.429.429 0 0 1 .213-.048h.058c.542 0 .959.261 1.152.726.194.465.078.95-.3 1.26-.494.416-.94.764-1.365 1.065-.456.329-1.027.261-1.424-.146-.368-.397-.513-1.055-.097-1.462Zm3.1 2.499c.6-.504 1.249-1.037 1.907-1.56.223-.174.446-.261.688-.261.174 0 .358.048.533.145.513.29.774.649.852 1.182-.039.077-.087.155-.116.242-.088.184-.175.368-.31.484a37.278 37.278 0 0 1-1.995 1.676c-.3.232-.62.329-.93.28-.31-.048-.61-.242-.853-.561-.455-.543-.358-1.133.223-1.627Zm3.64 2.305c.166-.145.34-.29.505-.446.445-.387.9-.784 1.355-1.162.223-.184.456-.28.698-.28.174 0 .339.048.513.144.426.242.91.591.872 1.22-.02.262-.165.582-.358.766-.66.63-1.366 1.22-1.967 1.705-.135.106-.3.174-.474.242-.078.029-.155.058-.223.096-.562-.067-1.162-.523-1.346-1.017-.175-.474-.049-.861.426-1.268Zm20.592-8.087c-2.887-2.218-5.84-4.446-8.698-6.596l-1.5-1.133a7.296 7.296 0 0 0-.572-.378 6.687 6.687 0 0 1-.436-.28c-.34-.233-.697-.36-1.056-.36-.32 0-.639.088-.949.272-.562.32-1.123.717-1.782 1.24-.32.252-.62.542-.92.813-.31.29-.63.581-.969.843-.803.64-1.81.562-2.653-.184l.668-.91c.765-1.037 1.55-2.112 2.334-3.158.097-.126.252-.252.475-.368 1.937-.997 3.98-1.53 6.082-1.588 1.337-.04 2.586.426 3.797.871.125.049.251.087.377.136 1.192.436 2.393.91 3.555 1.366l.232.087c1.24.494 2.296.687 3.313.63.387-.03.794-.02 1.181-.01.281 0 .562.01.852 0 .262-.01.35.067.378.329.175 1.782.358 3.583.543 5.327l.145 1.443c.029.33.068.649.106.978l.04.407-.611.087c-.572.087-1.114.165-1.666.252l-.077.01c-.194.029-.388.058-.543.155-.649.416-1.075.154-1.646-.281ZM20.726 37.123c-.019 0-.048.01-.058.01h-.01c-.522 0-.939-.252-1.075-.658-.145-.407-.019-.746.369-1.037l.184-.135a45.89 45.89 0 0 1 1.578-1.114c.204-.136.436-.203.659-.203.32 0 .64.135.833.397.261.329.3.852-.078 1.152-.561.446-1.172.852-1.762 1.25a9.623 9.623 0 0 0-.398.27.76.76 0 0 1-.242.069ZM23.99 4.697h.02a.728.728 0 0 0 .561-.251.998.998 0 0 0 .233-.669c.01-.33 0-.668 0-.988V.93C24.794.378 24.464 0 24 0h-.02c-.455.01-.784.378-.784.9-.01.95-.01 1.928 0 2.897.01.523.33.89.794.9ZM24.804 45.676V45.2c0-.339 0-.688-.01-1.027-.02-.494-.339-.842-.775-.852a.736.736 0 0 0-.552.213.921.921 0 0 0-.261.659c-.01.949-.01 1.946 0 2.944.01.513.339.881.794.881h.01c.455 0 .784-.368.794-.89.01-.35.01-.698 0-1.037v-.416ZM33.647 7.274a.754.754 0 0 0 .397.116c.058 0 .116-.01.174-.02.223-.058.407-.213.552-.455.513-.862 1.007-1.733 1.472-2.547.049-.087.087-.194.136-.33.029-.067.048-.154.087-.251l.01-.03-.03-.019-.184-.184c-.145-.154-.3-.31-.484-.397-.329-.145-.668 0-.9.397-.436.746-.96 1.637-1.473 2.557-.251.456-.155.92.242 1.163ZM13.21 6.906c.185.31.456.484.727.484a.808.808 0 0 0 .397-.116c.407-.233.504-.698.252-1.153-.513-.91-.969-1.724-1.482-2.547-.097-.165-.271-.281-.397-.358a.602.602 0 0 1-.116-.088l-.01-.01h-.02c-.367-.009-.677.136-.832.398-.155.242-.145.561.01.842.522.93 1.065 1.85 1.472 2.548ZM14.334 40.746c-.407-.223-.794-.136-1.007.213a50.501 50.501 0 0 0-1.656 2.886.63.63 0 0 0 .039.649c.164.261.464.416.803.416H12.571l.01-.01c.03-.019.058-.038.107-.057.116-.068.29-.155.377-.3a77.308 77.308 0 0 0 1.589-2.76.714.714 0 0 0 .058-.563.75.75 0 0 0-.378-.474ZM34.75 41.075c-.096-.165-.28-.271-.406-.349-.049-.029-.087-.058-.116-.077l-.01-.01h-.02c-.367 0-.668.155-.823.417-.145.242-.135.532.01.813.494.901 1.036 1.811 1.492 2.596.174.3.435.455.707.455.125 0 .251-.029.377-.097a.775.775 0 0 0 .388-.455c.068-.213.029-.455-.097-.688a47.64 47.64 0 0 0-1.501-2.605Z"/>
	</g>

</symbol>
<symbol id="icon-03" viewBox="0 0 31 46">
	<path fill="#CBD5EE" d="M29.538 38.357V1.47H1.48v36.95h13.158c.51.019.843.306.833.732-.009.416-.342.712-.851.712H.86c-.62 0-.861-.287-.861-.99V1.055C0 .213.213 0 1.064 0h28.863C30.777 0 31 .213 31 1.055v37.681c0 .944-.185 1.13-1.129 1.13-.555 0-1.11.008-1.666 0-.518-.01-.851-.288-.86-.704-.01-.435.333-.722.879-.731.398-.01.796-.01 1.203-.01.018-.009.046-.036.11-.064Z"/>
	<path fill="#CBD5EE" d="M2.952 19.933V6.265c0-.842.12-.981.944-1.101A1.513 1.513 0 0 0 5.164 3.83c.083-.685.296-.87.99-.88h18.702c.684 0 .906.195.98.87.084.732.63 1.26 1.36 1.343.63.064.843.296.852.906v21.053c0 .555-.277.897-.712.906-.445.01-.731-.342-.731-.925 0-6.681-.01-13.362.009-20.043 0-.398-.102-.583-.481-.74-.75-.297-1.268-.87-1.537-1.63-.092-.25-.222-.314-.471-.314-5.738.01-11.484.01-17.222 0-.277 0-.398.083-.49.352-.306.795-.86 1.378-1.657 1.656-.36.13-.36.333-.36.62V28.89c0 1.351.009 2.712-.01 4.063 0 .268.065.397.343.5.805.295 1.378.87 1.675 1.674.101.278.24.333.509.333a676.6 676.6 0 0 1 6.144 0c.222 0 .509.028.638.167.167.176.297.481.269.712-.046.37-.361.546-.74.556H6.153c-.684 0-.897-.195-.98-.87a1.492 1.492 0 0 0-1.36-1.342c-.639-.065-.852-.296-.852-.953-.009-4.6-.009-9.198-.009-13.797Z"/>
	<path fill="#CBD5EE" d="M14.14 12.354c.11-.185.175-.37.305-.5 1.592-1.6 3.193-3.202 4.793-4.803.547-.546.843-.536 1.398.01.63.629 1.268 1.258 1.888 1.887.462.463.462.805.009 1.268a3158.198 3158.198 0 0 1-7.894 7.894c-.444.444-.786.444-1.23 0a1236.399 1236.399 0 0 1-4.96-4.96c-.445-.445-.435-.778.009-1.231.648-.657 1.305-1.305 1.953-1.962.49-.481.814-.481 1.295-.01.648.64 1.286 1.287 1.925 1.926.12.13.25.23.509.48Zm-2.97-.926c-.436.417-.824.796-1.158 1.12a1643.67 1643.67 0 0 0 3.98 3.988l6.977-6.977-1.12-1.212c-.11.148-.194.305-.314.426-1.564 1.573-3.128 3.136-4.692 4.7-.703.704-.925.704-1.62.01-.712-.704-1.406-1.407-2.054-2.055ZM21.367 27.335c.814.028 1.508.306 2.1.852.149.139.39.24.593.24 1.61.056 2.831 1.277 2.887 2.897.01.203.11.444.25.592 1.11 1.194 1.12 2.896.018 4.09-.148.158-.259.417-.268.63-.056 1.591-1.286 2.822-2.86 2.877-.212.01-.471.111-.629.26-1.193 1.1-2.905 1.1-4.09 0a1.061 1.061 0 0 0-.63-.26c-1.572-.046-2.803-1.286-2.859-2.868a1.121 1.121 0 0 0-.259-.63c-1.1-1.203-1.092-2.896.019-4.09.139-.148.24-.388.25-.592.046-1.61 1.277-2.84 2.887-2.896.213-.01.462-.12.63-.269a2.97 2.97 0 0 1 1.96-.832ZM23.93 38.07c1.046.028 1.73-.787 1.536-1.842-.074-.444.028-.721.398-.98.99-.685.99-1.88 0-2.564-.342-.24-.481-.5-.407-.934.222-1.231-.602-2.064-1.823-1.842-.453.083-.722-.065-.972-.426-.666-.971-1.869-.971-2.535 0-.25.361-.518.5-.972.417-1.194-.222-2.036.61-1.823 1.804.074.444-.037.731-.398.981-1 .685-.99 1.86 0 2.554.343.24.482.51.398.935-.222 1.23.602 2.063 1.823 1.841.426-.074.703.037.944.38.703 1.018 1.879 1.018 2.582 0 .24-.343.527-.5.944-.38.12.047.231.047.305.056Z"/>
	<path fill="#CBD5EE" d="M18.433 43.789c.74-.445 1.435-.787 2.046-1.24.666-.49 1.221-.463 1.869.009.61.435 1.277.786 1.98 1.203.019-.167.046-.278.046-.38v-2.535c0-.583.287-.935.731-.925.435.009.713.351.713.907 0 1.35.01 2.71 0 4.062 0 .823-.546 1.12-1.268.694-.916-.546-1.823-1.083-2.72-1.647-.297-.185-.519-.204-.833-.01-.907.574-1.842 1.12-2.767 1.666-.713.426-1.24.111-1.25-.722-.009-1.35 0-2.711 0-4.062 0-.546.297-.888.732-.88.435.01.712.352.712.898.019.926.01 1.879.01 2.962ZM15.472 22.135H9.19c-.12 0-.25.01-.37-.01-.407-.046-.722-.36-.694-.73.028-.407.268-.639.666-.704.12-.018.25-.009.37-.009h12.696c.14 0 .287-.01.417.019.351.092.573.323.573.684 0 .389-.23.63-.601.713-.13.028-.278.018-.416.018-2.11.019-4.23.019-6.358.019ZM15.518 24.384h2.767c.546 0 .889.296.889.721 0 .435-.343.713-.898.713h-5.543c-.555 0-.898-.268-.907-.703-.009-.445.343-.74.916-.74.926.009 1.851.009 2.776.009ZM21.413 37.644c-2.008 0-3.683-1.666-3.683-3.673a3.689 3.689 0 0 1 3.674-3.674c2.008-.01 3.674 1.656 3.683 3.674.01 1.998-1.675 3.673-3.674 3.673Zm0-5.904c-1.23 0-2.23.99-2.24 2.212a2.218 2.218 0 0 0 2.203 2.249 2.216 2.216 0 0 0 2.258-2.24c.01-1.23-.98-2.22-2.22-2.22Z"/>
</symbol>
<symbol id="icon-04" viewBox="0 0 50 37">
	<path fill="#CBD5EE" d="M3.305 26.352c2.08.804 4.17 1.607 6.249 2.411 5.385 2.07 10.77 4.14 16.154 6.219.392.15.633.13.955-.181a9807.71 9807.71 0 0 1 20.445-20.455c.14-.14.311-.25.552-.432-.271-.16-.432-.24-.573-.331-.422-.241-.562-.623-.381-1.015.18-.392.582-.583 1.004-.402.553.241 1.095.513 1.608.814.422.251.492.733.19 1.125a2.9 2.9 0 0 1-.341.362C41.883 21.75 34.59 29.034 27.316 36.338c-.482.492-.914.563-1.547.322-8.057-3.115-16.115-6.21-24.182-9.314C.3 26.854-.222 25.8.1 24.473c.251-1.055.784-1.929 1.537-2.702 6.51-6.651 13.01-13.312 19.49-19.993C22.383.482 23.82-.07 25.608.01c4.672.2 9.353.331 14.025.502 2.793.1 5.576.201 8.369.292.381.01.683.13.844.502.19.442-.06.733-.342 1.015-4.2 4.189-8.379 8.398-12.588 12.578-4.923 4.882-10.81 8.047-17.561 9.594-2.11.483-4.27.503-6.43.412-2.602-.12-5.214-.18-7.816-.261-.111 0-.232.01-.352.1 1.205.272 2.411.553 3.627.824a5545.6 5545.6 0 0 1 17.621 3.969c.332.07.523 0 .744-.221C32.58 22.474 39.432 15.632 46.264 8.79c.1-.1.19-.221.331-.382-.261-.08-.462-.13-.653-.221-.372-.171-.572-.472-.462-.894.1-.402.402-.663.814-.573.743.17 1.487.372 2.21.633.422.15.532.683.281 1.065-.11.16-.26.301-.402.442a8962.78 8962.78 0 0 0-21.84 21.841c-.463.462-.885.583-1.518.442-7.153-1.638-14.306-3.245-21.459-4.852-.08-.02-.16-.02-.241-.03-.01.02-.01.05-.02.09ZM46.254 2.31a9.363 9.363 0 0 0-.654-.03l-7.112-.242c-4.511-.15-9.012-.311-13.523-.472-.985-.03-1.778.332-2.461 1.025-6.5 6.67-13.01 13.342-19.52 20.013-.101.11-.192.23-.342.411l.502.04c2.803.101 5.606.212 8.409.272 1.025.02 2.09.05 3.084-.15 2.442-.493 4.25-2.03 5.767-3.909.944-1.175 1.788-2.411 2.1-3.938.11-.523.663-.713 1.155-.452 2.19 1.175 4.541 1.517 6.982 1.246 1.196-.131 2.311-.513 3.195-1.387 4.009-3.998 8.017-7.997 12.026-12.005.11-.101.21-.222.392-.422ZM29.868 17.852c-1.105-.11-2.13-.15-3.115-.331-1.004-.18-1.989-.492-3.014-.744-.984 2.261-2.481 4.18-4.36 5.837 3.768-.954 7.183-2.622 10.489-4.762Z"/>
	<path fill="#CBD5EE" d="m31.717 5.937-4.501-.15c-.633-.02-.975-.402-.854-.945.11-.482.472-.622.904-.602a38220.329 38220.329 0 0 0 8.962.301c.361.01.703.09.884.452.271.543-.12 1.095-.784 1.095-1.537.01-3.074 0-4.601 0-.01-.05-.01-.1-.01-.15ZM28.482 9.203c-1.015 0-2.04.01-3.054 0-.533-.01-.864-.332-.854-.784.01-.442.361-.754.884-.743 1.949.05 3.908.12 5.857.18.12 0 .231.02.351.04.423.07.704.412.674.794a.754.754 0 0 1-.764.714c-1.035.01-2.07 0-3.104 0 .01-.07.01-.131.01-.201Z"/>
</symbol>
<symbol id="location" viewBox="0 0 18 22">
	<path fill="#BC9C6C" d="M9 0a9 9 0 0 0-9 9c0 8 9 13 9 13s9-5 9-13a9 9 0 0 0-9-9Zm0 13a4 4 0 1 1 0-8 4 4 0 0 1 0 8Z"/>
</symbol>
<symbol id="mail" viewBox="0 0 14 12">
	<path d="M12.09.273H1.91A1.91 1.91 0 0 0 0 2.182v7.636a1.909 1.909 0 0 0 1.91 1.91h10.18A1.91 1.91 0 0 0 14 9.817V2.182a1.909 1.909 0 0 0-1.91-1.91Zm-.208 8.03a.637.637 0 1 1-.855.942L8.39 6.853a2.505 2.505 0 0 1-2.78 0L2.973 9.245a.636.636 0 0 1-.855-.941l2.517-2.286-2.518-2.29a.636.636 0 1 1 .857-.942l3.168 2.882a1.276 1.276 0 0 0 1.718 0l3.166-2.882a.637.637 0 0 1 .857.942L9.365 6.02l2.517 2.285Z"/>
</symbol>
<symbol id="pin" viewBox="0 0 24 24">
	<path fill="#BC9C6C" d="M12 1a9 9 0 0 0-9 9c0 8 9 13 9 13s9-5 9-13a9 9 0 0 0-9-9Zm0 13a4 4 0 1 1 0-8 4 4 0 0 1 0 8Z"/>
</symbol>
<symbol id="search" viewBox="0 0 21 20">
	<path fill="#fff" d="M13.9 14.32a8 8 0 1 1 1.41-1.41l5.35 5.33-1.42 1.42-5.33-5.34h-.01ZM9 14A5.999 5.999 0 1 0 9 2.002 5.999 5.999 0 0 0 9 14Z"/>
</symbol>
<symbol id="slider-left" viewBox="0 0 43 14">
	<path d="M3.5 6.5h39v1h-39z"/>
	<path d="M8 1.343 2.343 7 8 12.657"/>
</symbol>
<symbol id="slider-right" viewBox="0 0 43 14">
	<path d="M39.5 7.5H.5v-1h39z"/>
	<path d="M35 12.657 40.657 7 35 1.343"/>
</symbol>
<symbol id="small-arrow-left" viewBox="0 0 18 14">
	<path fill="#BC9C6C" stroke="#BC9C6C" d="M3.5 6.5h14v1h-14z"/>
	<path stroke="#BC9C6C" stroke-width="2" d="M8 1.343 2.343 7 8 12.657"/>
</symbol>
<symbol id="small-arrow-right" viewBox="0 0 18 14">
	<path fill="#BC9C6C" stroke="#BC9C6C" d="M14.5 7.5H.5v-1h14z"/>
	<path stroke="#BC9C6C" stroke-width="2" d="M10 12.657 15.657 7 10 1.343"/>
</symbol>
<symbol id="telegram" viewBox="0 0 14 13">
	<path fill-rule="evenodd" d="m13.84.905-2.142 10.804s-.3.75-1.125.39L7.455 9.707l.066.051-1.954 1.786s-.155.117-.319.042l.096-.846.298-2.524s5.485-4.931 5.71-5.142c.225-.206.15-.253.15-.253.018-.253-.404 0-.404 0l-7.27 4.617L.8 6.422s-.464-.164-.511-.525c-.047-.361.525-.553.525-.553L12.85.624c0-.005.99-.441.99.28Z" clip-rule="evenodd"/>
</symbol>
<symbol id="viber" viewBox="0 0 322 322">
	<path d="M275.445 135.123c.387-45.398-38.279-87.016-86.192-92.771-.953-.113-1.991-.285-3.09-.467-2.372-.393-4.825-.797-7.3-.797-9.82 0-12.445 6.898-13.136 11.012-.672 4-.031 7.359 1.902 9.988 3.252 4.422 8.974 5.207 13.57 5.836 1.347.186 2.618.359 3.682.598 43.048 9.619 57.543 24.742 64.627 67.424.173 1.043.251 2.328.334 3.691.309 5.102.953 15.717 12.365 15.717h.001c.95 0 1.971-.082 3.034-.244 10.627-1.615 10.294-11.318 10.134-15.98-.045-1.313-.088-2.555.023-3.381.03-.208.045-.417.046-.626z"/>
	<path d="M176.077 25.688c1.275.092 2.482.18 3.487.334 70.689 10.871 103.198 44.363 112.207 115.605.153 1.211.177 2.688.202 4.252.09 5.566.275 17.145 12.71 17.385l.386.004c3.9 0 7.002-1.176 9.221-3.498 3.871-4.049 3.601-10.064 3.383-14.898-.053-1.186-.104-2.303-.091-3.281.899-72.862-62.171-138.933-134.968-141.39-.302-.01-.59.006-.881.047a6.09 6.09 0 0 1-.862.047c-.726 0-1.619-.063-2.566-.127C177.16.09 175.862 0 174.546 0c-11.593 0-13.797 8.24-14.079 13.152-.65 11.352 10.332 12.151 15.61 12.536zM288.36 233.703a224.924 224.924 0 0 1-4.512-3.508c-7.718-6.211-15.929-11.936-23.87-17.473a1800.92 1800.92 0 0 1-4.938-3.449c-10.172-7.145-19.317-10.617-27.957-10.617-11.637 0-21.783 6.43-30.157 19.109-3.71 5.621-8.211 8.354-13.758 8.354-3.28 0-7.007-.936-11.076-2.783-32.833-14.889-56.278-37.717-69.685-67.85-6.481-14.564-4.38-24.084 7.026-31.832 6.477-4.396 18.533-12.58 17.679-28.252-.967-17.797-40.235-71.346-56.78-77.428-7.005-2.576-14.365-2.6-21.915-.06-19.02 6.394-32.669 17.623-39.475 32.471-6.577 14.347-6.28 31.193.859 48.717 20.638 50.666 49.654 94.84 86.245 131.293 35.816 35.684 79.837 64.914 130.839 86.875 4.597 1.978 9.419 3.057 12.94 3.844 1.2.27 2.236.5 2.991.707.415.113.843.174 1.272.178l.403.002h.002c23.988 0 52.791-21.92 61.637-46.91 7.75-21.882-6.4-32.698-17.77-41.388zM186.687 83.564c-4.107.104-12.654.316-15.653 9.021-1.403 4.068-1.235 7.6.5 10.498 2.546 4.252 7.424 5.555 11.861 6.27 16.091 2.582 24.355 11.48 26.008 28 .768 7.703 5.955 13.082 12.615 13.082h.001c.492 0 .995-.029 1.496-.09 8.01-.953 11.893-6.838 11.542-17.49.128-11.117-5.69-23.738-15.585-33.791-9.929-10.084-21.898-15.763-32.785-15.5z"/>
</symbol>
<symbol id="whatsapp" viewBox="0 0 16 16">
	<path d="M13.315 2.654A7.421 7.421 0 0 0 8.03.464C3.915.464.564 3.814.563 7.932c-.001 1.317.343 2.602.996 3.734L.5 15.536l3.96-1.038a7.468 7.468 0 0 0 3.568.909h.003c4.117 0 7.467-3.351 7.469-7.47a7.425 7.425 0 0 0-2.185-5.283ZM8.03 14.145H8.03a6.2 6.2 0 0 1-3.16-.865l-.227-.135-2.349.617.627-2.29-.148-.236a6.187 6.187 0 0 1-.949-3.304 6.217 6.217 0 0 1 6.21-6.207c1.659 0 3.217.647 4.39 1.82a6.17 6.17 0 0 1 1.816 4.392 6.216 6.216 0 0 1-6.208 6.208Zm3.405-4.649c-.186-.094-1.104-.544-1.275-.607-.171-.063-.295-.093-.42.093-.124.187-.482.608-.59.732-.11.125-.218.14-.405.047-.187-.094-.788-.29-1.5-.927a5.61 5.61 0 0 1-1.039-1.292c-.108-.187-.011-.288.082-.381.084-.084.187-.218.28-.327.094-.11.125-.187.187-.311.062-.125.031-.234-.016-.327-.046-.094-.42-1.012-.575-1.386-.152-.364-.305-.315-.42-.32a7.703 7.703 0 0 0-.357-.007.685.685 0 0 0-.498.234c-.17.186-.653.638-.653 1.557 0 .918.668 1.806.762 1.93.093.124 1.316 2.01 3.188 2.818.445.192.793.307 1.064.393.447.142.854.122 1.175.074.359-.053 1.104-.451 1.26-.887.155-.436.155-.81.108-.888-.047-.078-.171-.124-.357-.218Z"/>
</symbol>
</svg>