<svg width="32" height="32" viewBox="0 0 32 32" fill="none" xmlns="http://www.w3.org/2000/svg">
<rect width="32" height="32" rx="16" fill="#1F70CD"/>
<path d="M23.9748 20.0946L23.2484 23.2433C23.1464 23.6885 22.7546 24 22.2958 24C14.4134 24 8 17.5888 8 9.70299C8 9.24509 8.31154 8.8538 8.75698 8.75194L11.9062 8.02522C12.3653 7.91881 12.8363 8.15701 13.027 8.59148L14.4816 11.9833C14.6515 12.3826 14.5367 12.8475 14.2008 13.1218L12.5169 14.502C13.5789 16.6647 15.3386 18.423 17.5032 19.4853L18.8797 17.8038C19.1512 17.4669 19.6204 17.3508 20.0198 17.5236L23.4103 18.9764C23.8435 19.1635 24.0811 19.6384 23.9748 20.0946Z" fill="white"/>
</svg>
