<svg width="32" height="32" viewBox="0 0 32 32" fill="none" xmlns="http://www.w3.org/2000/svg">
<rect width="32" height="32" rx="16" fill="#16968E"/>
<path d="M22.7877 8.36365H9.21196C8.53686 8.36365 7.88942 8.63183 7.41205 9.10919C6.93468 9.58656 6.6665 10.234 6.6665 10.9091V21.0909C6.6665 21.766 6.93468 22.4135 7.41205 22.8908C7.88942 23.3682 8.53686 23.6364 9.21196 23.6364H22.7877C23.4628 23.6364 24.1103 23.3682 24.5876 22.8908C25.065 22.4135 25.3332 21.766 25.3332 21.0909V10.9091C25.3332 10.234 25.065 9.58656 24.5876 9.10919C24.1103 8.63183 23.4628 8.36365 22.7877 8.36365ZM22.5094 19.0715C22.5956 19.1454 22.666 19.2358 22.7166 19.3373C22.7672 19.4389 22.7969 19.5495 22.804 19.6628C22.8111 19.776 22.7954 19.8895 22.7578 19.9966C22.7202 20.1037 22.6616 20.2021 22.5853 20.2861C22.509 20.3701 22.4167 20.438 22.3137 20.4856C22.2108 20.5333 22.0993 20.5599 21.9859 20.5637C21.8725 20.5675 21.7595 20.5486 21.6535 20.508C21.5476 20.4674 21.4508 20.4059 21.369 20.3273L17.8538 17.137C17.3048 17.5032 16.6597 17.6987 15.9998 17.6987C15.3399 17.6987 14.6948 17.5032 14.1459 17.137L10.6306 20.3273C10.463 20.471 10.2459 20.5437 10.0255 20.5299C9.80506 20.5162 9.59871 20.417 9.45025 20.2535C9.30179 20.09 9.22292 19.8751 9.23039 19.6544C9.23786 19.4337 9.33108 19.2246 9.49026 19.0715L12.8469 16.0246L9.48941 12.9709C9.40696 12.8959 9.34008 12.8054 9.2926 12.7046C9.24512 12.6038 9.21797 12.4946 9.21269 12.3832C9.20203 12.1584 9.28112 11.9385 9.43256 11.772C9.58401 11.6055 9.79541 11.5059 10.0202 11.4953C10.2451 11.4846 10.4649 11.5637 10.6315 11.7152L14.8561 15.558C15.1694 15.8432 15.5778 16.0014 16.0015 16.0014C16.4252 16.0014 16.8337 15.8432 17.147 15.558L21.3682 11.7152C21.5347 11.5637 21.7546 11.4846 21.9794 11.4953C22.2043 11.5059 22.4157 11.6055 22.5671 11.772C22.7186 11.9385 22.7976 12.1584 22.787 12.3832C22.7763 12.6081 22.6768 12.8195 22.5103 12.9709L19.1537 16.0255L22.5094 19.0715Z" fill="white"/>
</svg>
