<svg width="32" height="32" viewBox="0 0 32 32" fill="none" xmlns="http://www.w3.org/2000/svg">
<path d="M16 32C24.8366 32 32 24.8366 32 16C32 7.16344 24.8366 0 16 0C7.16344 0 0 7.16344 0 16C0 24.8366 7.16344 32 16 32Z" fill="url(#paint0_linear_266_1324)"/>
<path fill-rule="evenodd" clip-rule="evenodd" d="M23.7872 9.20624L20.931 23.6125C20.931 23.6125 20.531 24.6125 19.431 24.1312L15.2738 20.9434L15.362 21.0124L12.7557 23.3937C12.7557 23.3937 12.5495 23.5499 12.3307 23.4499L12.4584 22.3218L12.8563 18.9563C12.8563 18.9563 20.1688 12.3813 20.4688 12.1C20.7688 11.825 20.6688 11.7625 20.6688 11.7625C20.6938 11.425 20.1313 11.7625 20.1313 11.7625L10.4375 17.9188C10.4375 17.9188 10.4375 17.9188 10.4375 17.9189L10.4372 17.9187L6.39974 16.5625C6.39974 16.5625 5.78099 16.3437 5.71849 15.8625C5.65599 15.3812 6.41849 15.125 6.41849 15.125L22.4685 8.83124C22.4685 8.82499 23.7872 8.24374 23.7872 9.20624Z" fill="white"/>
<defs>
<linearGradient id="paint0_linear_266_1324" x1="16" y1="0" x2="16" y2="32" gradientUnits="userSpaceOnUse">
<stop stop-color="#2299CA"/>
<stop offset="1" stop-color="#1F95D3"/>
</linearGradient>
</defs>
</svg>
