<svg width="32" height="32" viewBox="0 0 32 32" fill="none" xmlns="http://www.w3.org/2000/svg">
<path d="M16 32C24.8366 32 32 24.8366 32 16C32 7.16344 24.8366 0 16 0C7.16344 0 0 7.16344 0 16C0 24.8366 7.16344 32 16 32Z" fill="url(#paint0_linear_266_1310)"/>
<path d="M23.0865 8.8725C21.206 6.99 18.7058 5.953 16.0418 5.95175C10.5533 5.95175 6.08525 10.4188 6.0835 15.9095C6.0825 17.665 6.54125 19.3783 7.4125 20.8878L6 26.0483L11.2788 24.6638C12.7335 25.4565 14.371 25.8748 16.0378 25.8755H16.042C21.5305 25.8755 25.9978 21.4078 26 15.9173C26.0013 13.2568 24.966 10.7548 23.0865 8.8725ZM16.042 24.1935H16.0388C14.553 24.193 13.0965 23.794 11.8255 23.04L11.5233 22.8605L8.39075 23.6823L9.2265 20.6283L9.02975 20.3143C8.201 18.9968 7.76325 17.474 7.76425 15.9095C7.76575 11.3463 11.479 7.6335 16.0445 7.6335C18.2555 7.634 20.3333 8.49625 21.8963 10.061C23.459 11.6255 24.319 13.7048 24.3185 15.9165C24.317 20.4805 20.6038 24.1935 16.042 24.1935ZM20.582 17.9948C20.333 17.87 19.1098 17.2688 18.8815 17.185C18.6533 17.102 18.488 17.0608 18.322 17.3098C18.156 17.5588 17.6793 18.1195 17.5338 18.2855C17.3888 18.4515 17.2438 18.4725 16.9948 18.3478C16.7458 18.223 15.9443 17.9605 14.9945 17.1125C14.2545 16.4533 13.755 15.6378 13.61 15.3888C13.465 15.1398 13.5945 15.0055 13.7193 14.8813C13.8313 14.7698 13.9683 14.5908 14.0925 14.4453C14.2168 14.2998 14.2583 14.196 14.3413 14.0303C14.4243 13.8643 14.383 13.719 14.3205 13.5945C14.258 13.4698 13.7605 12.245 13.5535 11.7468C13.3513 11.2615 13.1463 11.3273 12.9938 11.3198C12.8483 11.3128 12.6825 11.3108 12.5168 11.3108C12.351 11.3108 12.0813 11.373 11.8533 11.6223C11.6255 11.8713 10.9825 12.473 10.9825 13.6983C10.9825 14.9228 11.874 16.1063 11.9985 16.272C12.123 16.4378 13.753 18.9515 16.249 20.0293C16.8425 20.2853 17.3063 20.4385 17.6675 20.5535C18.2635 20.7433 18.806 20.716 19.235 20.652C19.713 20.5808 20.707 20.0503 20.9148 19.469C21.122 18.888 21.122 18.39 21.0593 18.286C20.9965 18.1818 20.8305 18.1195 20.582 17.9948Z" fill="white"/>
<defs>
<linearGradient id="paint0_linear_266_1310" x1="16" y1="0" x2="16" y2="32" gradientUnits="userSpaceOnUse">
<stop stop-color="#57D063"/>
<stop offset="1" stop-color="#27B33D"/>
</linearGradient>
</defs>
</svg>
